<svg width="55" height="56" viewBox="0 0 55 56" fill="none" xmlns="http://www.w3.org/2000/svg">
<path d="M27.5002 51.3337C14.8494 51.3196 4.59739 40.8811 4.5835 28.0004V27.5337C4.83542 14.7109 15.2044 4.49893 27.7996 4.66909C40.3948 4.83924 50.4941 15.3278 50.4118 28.1528C50.3295 40.9779 40.0965 51.3311 27.5002 51.3337ZM27.4635 46.667H27.5002C37.6218 46.6567 45.8202 38.2967 45.8152 27.991C45.8101 17.6854 37.6035 9.33371 27.4818 9.33371C17.3602 9.33371 9.15356 17.6854 9.1485 27.991C9.14344 38.2967 17.3419 46.6567 27.4635 46.667ZM34.3752 37.3337H29.7918V18.667H34.3752V37.3337ZM25.2085 37.3337H20.6252V18.667H25.2085V37.3337Z" fill="#2E3A59"/>
</svg>
