<svg width="56" height="55" viewBox="0 0 56 55" fill="none" xmlns="http://www.w3.org/2000/svg">
<path d="M28.0001 50.4163C15.1134 50.4163 4.66675 40.1562 4.66675 27.4997C4.66675 14.8431 15.1134 4.58301 28.0001 4.58301C40.8867 4.58301 51.3334 14.8431 51.3334 27.4997C51.3193 40.1504 40.8809 50.4025 28.0001 50.4163ZM9.33342 27.8938C9.44382 37.98 17.8293 46.084 28.0993 46.0301C38.3693 45.9756 46.6657 37.7835 46.6657 27.6968C46.6657 17.61 38.3693 9.41791 28.0993 9.36342C17.8293 9.30947 9.44382 17.4135 9.33342 27.4997V27.8938ZM23.3334 37.8122V17.1872L37.3334 27.4997L23.3334 37.8122Z" fill="#2E3A59"/>
</svg>
